<svg class="logotype" xmlns="http://www.w3.org/2000/svg" viewBox="0 0 720 288">
  <title>Field Notes</title>
  <g class="logotype-text">
    <path d="M0,14.8h58.6V41H31.79V67h24.6V93.2H31.79V148H0Z"/>
    <path d="M66.79,8.8h31.8V33.6H66.79Zm0,31.4h31.8V148H66.79Z"/>
    <path d="M141,101.4v16.4c0,5.6,1.2,7.8,4.4,7.8,3.4,0,5-1.8,5-8.4v-6H181v3.4c0,20.6-8.2,35.2-36.4,35.2-25.8,0-35.8-12.4-35.8-35.2v-41c0-23.8,15-35,36.4-35,21,0,36,10,36,35v27.8Zm9.2-19.8v-11c0-5.4-.6-8.6-4.6-8.6-3.2,0-4.6,3-4.6,8.6v11Z"/>
    <path d="M190.38,148V8.8h31.8V148Z"/>
    <path d="M305.58,8.8V118.4c0,11.6.2,24.2.4,29.6h-29.8c-.4-2.6-.8-5.8-1-9.2-5.4,8.6-11.6,11-20.6,11-12.6,0-22.2-8.8-22.2-30.4V70.2c0-16.6,5.4-31.6,24.4-31.6,7.4,0,14.2,2.6,17,8V8.8Zm-41.4,107c0,4.6,1.4,7.6,4.8,7.6,3,0,4.8-2.8,4.8-7.8V73c0-6-1.2-8-4.8-8-3,0-4.8,2-4.8,8Z"/>
    <path d="M349.58,148V14.8h33.2l9.6,48c1,5.2,3.6,19,4.4,24.6h1.4c-2.2-21-4.8-55.4-4.8-67.8V14.8h29.8V148h-35.8l-8-53.2c-.8-5.6-3-19.6-3.6-24h-1.6c1,14.8,3.6,58.6,3.6,74V148Z"/>
    <path d="M507.38,74v40.6c0,25.2-14.8,35.2-37.2,35.2-22,0-36-10-36-35.2V73c0-24.2,15.8-34.4,36-34.4C491.78,38.6,507.38,47.8,507.38,74ZM466,70.2v47c0,5.4,1.4,8,4.8,8,4,0,4.8-3.4,4.8-8V70c0-4.4-1-7.4-4.8-7.4C467.18,62.6,466,65.8,466,70.2Z"/>
    <path d="M512.38,40.2h9.8V18h31.2V40.2h10.8V68.6h-10.8v46.6c0,4.8.8,6.4,6.2,6.4a20.7,20.7,0,0,0,3.2-.2V147c-6,1.8-14.4,2-18,2-18.8,0-23.4-8-23.4-26V68.6h-9Z"/>
    <path d="M604.18,101.4v16.4c0,5.6,1.2,7.8,4.4,7.8,3.4,0,5-1.8,5-8.4v-6h30.6v3.4c0,20.6-8.2,35.2-36.4,35.2-25.8,0-35.8-12.4-35.8-35.2v-41c0-23.8,15-35,36.4-35,21,0,36,10,36,35v27.8Zm9.2-19.8v-11c0-5.4-.6-8.6-4.6-8.6-3.2,0-4.6,3-4.6,8.6v11Z"/>
    <path d="M679.78,111.87v5.2c0,6.6,1.2,10,4.6,10,2,0,3.6-1.6,3.6-6.2,0-5.6-1-8.4-12.8-15.8-18.2-11.4-23.2-19-23.2-34.8,0-21.2,11.6-31.6,33.2-31.6,30,0,33,17.2,33,31v5.4h-27.6v-6c0-6.4-.8-8.6-4-8.6-2.6,0-4,1.8-4,6.6,0,4.4,2.8,7,11.6,12.2,20.4,12.2,25.6,22.6,25.6,35.8,0,21.4-6.8,34.8-34.6,34.8-32,0-33.8-19.8-33.8-35.4v-2.6Z"/>
  </g>
  <g class="logotype-text">
    <path d="M0,161.71H2.4v45.48c3.12-9.36,9.6-16.44,22.44-16.44,14.16,0,24.72,10.92,24.72,29.88,0,23.28-12.36,32.64-25.44,32.64-11.76,0-18.6-6-21.72-15.72.12,4.32.12,10.68-.12,14.28H-.12c.12-2.4.12-7.68.12-16.56ZM24.72,193c-12.36,0-22.56,7.8-22.56,29.4,0,16.32,6.24,28.56,22,28.56C37.32,251,47,240.43,47,220.75,47,203,37.08,193,24.72,193Z"/>
    <path d="M55.92,192.19c16.32,40.8,21.84,54,22.92,57.72H79c1.8-4.8,8.16-20.76,22.68-57.72h2.64L80.4,252.54c-8.28,20.64-12.12,26.64-22.2,26.64a22.47,22.47,0,0,1-4.56-.36l.24-2.4a22,22,0,0,0,4.44.36c7.32,0,11.4-3.48,19.32-23.64l-24.36-61Z"/>
    <path d="M146.76,231.67c0,17.64-7,21.36-16.56,21.36a28.59,28.59,0,0,1-4.2-.24v-2.16c1,.12,3.6.24,4.44.24,11.88,0,13.92-8.28,13.92-20.76V167.35h2.4Z"/>
    <path d="M160.2,221.35c0,18.6,9.24,29.52,22.2,29.52,11.76,0,17.4-6.36,20.88-14.16h2.4c-3.6,9.36-10.44,16.32-23.16,16.32-18.36,0-24.72-16.44-24.72-31.2,0-19.08,10.32-31.08,25-31.08,18.48,0,24.24,16.2,24.24,27.6a25.07,25.07,0,0,1-.12,3Zm44.52-2.16c0-14.4-7.2-26.28-22.08-26.28-13.2,0-21.6,10.92-22.32,26.28Z"/>
    <path d="M258.36,238.39a105.88,105.88,0,0,0,.6,13.44h-2.4a108.1,108.1,0,0,1-.6-13.32c-3.24,10.08-10.8,14.76-21.72,14.76-14.4,0-20-8.52-20-17,0-12.84,10-18.12,26.64-18.12,6.84,0,10.8,0,15.12.12v-8.4c0-8.64-3.6-16.92-17.76-16.92-13.2,0-17.76,6.6-18.6,15.72h-2.4c.48-8.64,5.28-17.88,21.12-17.88,14.28,0,20,7.92,20,18.36Zm-2.4-18c-4.08-.12-9-.12-15.24-.12-16.2,0-24,5.16-24,15.84,0,9.24,7.32,14.88,17.64,14.88,13.92,0,21.6-8.52,21.6-24.84Z"/>
    <path d="M273.36,206.71c0-5.88-.12-13.2-.12-14.52h2.4c.12,2.76.24,7.92.12,15,2.16-6.48,8.28-16.44,22.68-16.44,10,0,20.16,5.76,20.16,23v38h-2.52V214c0-11.88-5.76-21-18-21-14.28,0-22.32,12-22.32,26v32.76h-2.4Z"/>
    <path d="M425.63,199.87l-21.84,32.4,20.4,19.56h-3.48l-18.24-17.64c-8.64,12.6-15.24,18.84-27.24,18.84-15.6,0-22.56-11.16-22.56-21.48,0-12.84,9.48-18.72,20.76-25.56-6.84-6.6-12-13-12-21.6,0-10.32,7.44-18.24,18.24-18.24,12.24,0,17.52,9.48,17.52,16.92,0,11.52-7.8,16.8-20,23.52l25.08,24.12,20.64-30.84Zm-24.72,32.76L375,207.55c-10.68,6.36-19.8,12.12-19.8,23.76,0,10,6.84,19.56,20.16,19.56C387.36,250.87,394.32,242.47,400.92,232.63Zm-37.08-48.24c0,7.32,3.72,12.84,11.76,20.64,12.84-7.08,19.08-11.64,19.08-22,0-4.92-3.6-14.76-15.12-14.76C370.08,168.31,363.84,175.63,363.84,184.39Z"/>
    <path d="M534.11,208.87c0,24-12.36,44.16-37.68,44.16-23.28,0-37-19.2-37-43.44,0-23.28,13.2-43.44,37.68-43.44C520.07,166.15,534.11,185.23,534.11,208.87Zm-72.12.48c0,21.6,11.4,41.52,34.44,41.52,23.4,0,35.16-18.6,35.16-41.88,0-22.08-12.72-40.68-34.56-40.68C475,168.31,462,186.55,462,209.35Z"/>
    <path d="M546.35,251.83V161.71h2.4v90.12Z"/>
    <path d="M565.55,172.63V161.71H568v10.92Zm0,19.56H568v59.64h-2.4Z"/>
    <path d="M580,192.19c12.24,31.08,20.88,52.08,22.44,57.12h.12c1.92-5.52,20.4-50.28,23.28-57.12h2.52l-24.48,59.64H601l-23.64-59.64Z"/>
    <path d="M635.15,221.35c0,18.6,9.24,29.52,22.2,29.52,11.76,0,17.4-6.36,20.88-14.16h2.4C677,246.07,670.19,253,657.47,253c-18.36,0-24.72-16.44-24.72-31.2,0-19.08,10.32-31.08,25-31.08,18.48,0,24.24,16.2,24.24,27.6a25.27,25.27,0,0,1-.12,3Zm44.52-2.16c0-14.4-7.2-26.28-22.08-26.28-13.2,0-21.6,10.92-22.32,26.28Z"/>
    <path d="M693.71,212.59c0-13.08,0-16.68-.12-20.4h2.28c.24,3,.24,9.84.24,17.28,3-10.44,13-18.36,22.56-18.72v2.4c-12.24.48-22.56,12.72-22.56,26.52v32.16h-2.4Z"/>
  </g>
</svg>
