<svg class="logotype--small" xmlns="http://www.w3.org/2000/svg" viewBox="0 0 720 142">
  <title>Field Notes</title>
  <g class="logotype-text">
    <path d="M0,6.8h58.6V33H31.79V59h24.6V85.2H31.79V140H0Z"/>
    <path d="M66.79.8h31.8V25.6H66.79Zm0,31.4h31.8V140H66.79Z"/>
    <path d="M141,93.4v16.4c0,5.6,1.2,7.8,4.4,7.8,3.4,0,5-1.8,5-8.4v-6H181v3.4c0,20.6-8.2,35.2-36.4,35.2-25.8,0-35.8-12.4-35.8-35.2v-41c0-23.8,15-35,36.4-35,21,0,36,10,36,35V93.4Zm9.2-19.8v-11c0-5.4-.6-8.6-4.6-8.6-3.2,0-4.6,3-4.6,8.6v11Z"/>
    <path d="M190.38,140V.8h31.8V140Z"/>
    <path d="M305.58.8V110.4c0,11.6.2,24.2.4,29.6h-29.8c-.4-2.6-.8-5.8-1-9.2-5.4,8.6-11.6,11-20.6,11-12.6,0-22.2-8.8-22.2-30.4V62.2c0-16.6,5.4-31.6,24.4-31.6,7.4,0,14.2,2.6,17,8V.8Zm-41.4,107c0,4.6,1.4,7.6,4.8,7.6,3,0,4.8-2.8,4.8-7.8V65c0-6-1.2-8-4.8-8-3,0-4.8,2-4.8,8Z"/>
    <path d="M349.58,140V6.8h33.2l9.6,48c1,5.2,3.6,19,4.4,24.6h1.4c-2.2-21-4.8-55.4-4.8-67.8V6.8h29.8V140h-35.8l-8-53.2c-.8-5.6-3-19.6-3.6-24h-1.6c1,14.8,3.6,58.6,3.6,74V140Z"/>
    <path d="M507.38,66v40.6c0,25.2-14.8,35.2-37.2,35.2-22,0-36-10-36-35.2V65c0-24.2,15.8-34.4,36-34.4C491.78,30.6,507.38,39.8,507.38,66ZM466,62.2v47c0,5.4,1.4,8,4.8,8,4,0,4.8-3.4,4.8-8V62c0-4.4-1-7.4-4.8-7.4C467.18,54.6,466,57.8,466,62.2Z"/>
    <path d="M512.38,32.2h9.8V10h31.2V32.2h10.8V60.6h-10.8v46.6c0,4.8.8,6.4,6.2,6.4a20.7,20.7,0,0,0,3.2-.2V139c-6,1.8-14.4,2-18,2-18.8,0-23.4-8-23.4-26V60.6h-9Z"/>
    <path d="M604.18,93.4v16.4c0,5.6,1.2,7.8,4.4,7.8,3.4,0,5-1.8,5-8.4v-6h30.6v3.4c0,20.6-8.2,35.2-36.4,35.2-25.8,0-35.8-12.4-35.8-35.2v-41c0-23.8,15-35,36.4-35,21,0,36,10,36,35V93.4Zm9.2-19.8v-11c0-5.4-.6-8.6-4.6-8.6-3.2,0-4.6,3-4.6,8.6v11Z"/>
    <path d="M679.78,103.87v5.2c0,6.6,1.2,10,4.6,10,2,0,3.6-1.6,3.6-6.2,0-5.6-1-8.4-12.8-15.8-18.2-11.4-23.2-19-23.2-34.8,0-21.2,11.6-31.6,33.2-31.6,30,0,33,17.2,33,31v5.4h-27.6v-6c0-6.4-.8-8.6-4-8.6-2.6,0-4,1.8-4,6.6,0,4.4,2.8,7,11.6,12.2,20.4,12.2,25.6,22.6,25.6,35.8,0,21.4-6.8,34.8-34.6,34.8-32,0-33.8-19.8-33.8-35.4v-2.6Z"/>
  </g>
</svg>
